<?xml version="1.0" encoding="UTF-8" standalone="no"?>
<!DOCTYPE svg PUBLIC "-//W3C//DTD SVG 1.1//EN" "http://www.w3.org/Graphics/SVG/1.1/DTD/svg11.dtd">
<svg width="100%" height="100%" viewBox="0 0 40 40" version="1.1" xmlns="http://www.w3.org/2000/svg" xmlns:xlink="http://www.w3.org/1999/xlink" xml:space="preserve" xmlns:serif="http://www.serif.com/" style="fill-rule:evenodd;clip-rule:evenodd;stroke-linejoin:round;stroke-miterlimit:1.41421;">
    <g transform="matrix(1,0,0,1,1.988,7.9983)">
        <path d="M33.6,24L2.4,24C1.763,24 1.153,23.747 0.703,23.297C0.253,22.847 0,22.237 0,21.6L0,11.504L1.729,11.504L2.119,10.56L2.992,10.56L3.381,11.5L6.783,11.5L6.783,10.785L7.087,11.505L8.853,11.505L9.157,10.773L9.157,11.503L17.61,11.503L17.61,9.959L17.77,9.959C17.884,9.963 17.917,9.973 17.917,10.163L17.917,11.505L22.29,11.505L22.29,11.146C22.737,11.373 23.264,11.506 23.823,11.506L23.918,11.505L23.913,11.505L25.753,11.505L26.147,10.565L27.02,10.565L27.405,11.505L30.951,11.505L30.951,10.611L31.487,11.505L34.323,11.505L34.323,5.601L31.516,5.601L31.516,6.298L31.123,5.601L28.237,5.601L28.237,6.298L27.876,5.601L23.979,5.601C23.389,5.571 22.8,5.693 22.27,5.954L22.291,5.945L22.291,5.601L19.603,5.601L19.603,5.945C19.278,5.689 18.867,5.566 18.454,5.602L18.46,5.602L8.637,5.602L7.978,7.127L7.301,5.602L4.207,5.602L4.207,6.299L3.866,5.602L1.226,5.602L0.003,8.402L0.003,2.402C0.003,1.766 0.256,1.155 0.706,0.705C1.156,0.255 1.766,0.002 2.403,0.002L33.603,0.002C34.24,0.002 34.85,0.255 35.3,0.705C35.75,1.155 36.003,1.766 36.003,2.402L36.003,12.882L34.13,12.882C34.1,12.88 34.064,12.88 34.029,12.88C33.595,12.88 33.192,13.01 32.856,13.233L32.864,13.228L32.864,12.882L30.094,12.882C29.661,12.858 29.233,12.981 28.879,13.231L28.885,13.227L28.885,12.881L23.939,12.881L23.939,13.227C23.534,12.999 23.077,12.88 22.612,12.881L22.573,12.881L22.575,12.881L19.312,12.881L19.312,13.227C18.886,12.954 18.38,12.833 17.876,12.882L17.885,12.881L14.234,12.881L13.398,13.785L12.616,12.881L7.162,12.881L7.162,18.789L12.514,18.789L13.375,17.871L14.186,18.789L17.485,18.789L17.485,17.406L17.945,17.406C18.387,17.424 18.828,17.35 19.241,17.189L19.219,17.197L19.219,18.791L21.939,18.791L21.939,17.252L22.07,17.252C22.236,17.252 22.253,17.258 22.253,17.426L22.253,18.792L30.519,18.792L30.62,18.794C31.094,18.794 31.536,18.652 31.904,18.409L31.895,18.414L31.895,18.792L34.517,18.792L34.642,18.794C35.133,18.794 35.6,18.693 36.024,18.51L36.001,18.519L36.001,21.601C36.001,22.238 35.748,22.848 35.298,23.298C34.848,23.748 34.238,24.001 33.601,24.001L33.6,24ZM21.105,17.961L20.087,17.961L20.087,13.726L22.423,13.726C22.845,13.687 23.27,13.758 23.656,13.932L23.64,13.926C23.953,14.098 24.162,14.426 24.162,14.802L24.16,14.869L24.16,14.866L24.161,14.904C24.161,15.39 23.868,15.808 23.448,15.99L23.44,15.993C23.641,16.065 23.809,16.188 23.934,16.347L23.936,16.349C24.077,16.583 24.136,16.857 24.104,17.128L24.105,17.122L24.105,17.96L23.089,17.96L23.089,17.43C23.137,17.142 23.079,16.845 22.926,16.596L22.929,16.601C22.823,16.521 22.703,16.463 22.574,16.431C22.446,16.399 22.312,16.393 22.181,16.414L22.187,16.413L21.105,16.413L21.105,17.961ZM21.105,14.601L21.105,15.552L22.335,15.552C22.509,15.568 22.684,15.537 22.841,15.462L22.835,15.465C22.899,15.424 22.952,15.367 22.989,15.299C23.026,15.232 23.045,15.157 23.045,15.08L23.044,15.057L23.044,15.058C23.049,14.982 23.032,14.906 22.996,14.838C22.959,14.771 22.904,14.716 22.837,14.678L22.835,14.677C22.683,14.609 22.517,14.582 22.351,14.597L22.355,14.597L21.105,14.601ZM12.08,17.96L8.073,17.96L8.073,13.726L12.143,13.726L13.388,15.114L14.675,13.726L17.908,13.726C19.056,13.726 19.614,14.183 19.614,15.121C19.614,16.076 19.037,16.54 17.854,16.54L16.589,16.54L16.589,17.959L14.622,17.959L13.376,16.56L12.081,17.96L12.08,17.96ZM15.581,14.18L14.027,15.85L15.581,17.574L15.581,14.18ZM9.082,16.235L9.082,17.077L11.57,17.077L12.72,15.835L11.614,14.601L9.081,14.601L9.081,15.371L11.303,15.371L11.303,16.234L9.082,16.235ZM16.589,14.602L16.589,15.68L17.896,15.68C18.296,15.68 18.526,15.476 18.526,15.12C18.526,14.78 18.312,14.601 17.907,14.601L16.589,14.602ZM34.627,17.962L32.673,17.962L32.673,17.052L34.619,17.052C34.765,17.072 34.912,17.034 35.03,16.946L35.029,16.947C35.067,16.912 35.097,16.87 35.117,16.823C35.138,16.776 35.148,16.725 35.148,16.674L35.148,16.671L35.148,16.658C35.148,16.608 35.137,16.558 35.116,16.512C35.095,16.466 35.064,16.425 35.025,16.392C34.922,16.317 34.794,16.284 34.667,16.298L34.669,16.298L34.482,16.292C33.568,16.268 32.533,16.24 32.533,14.987C32.533,14.377 32.915,13.726 33.984,13.726L36.001,13.726L36.001,14.628L34.156,14.628C34.014,14.612 33.87,14.641 33.744,14.71L33.748,14.708C33.699,14.741 33.659,14.786 33.633,14.839C33.607,14.892 33.596,14.951 33.601,15.01L33.601,15.009L33.601,15.02C33.601,15.088 33.622,15.153 33.662,15.208C33.701,15.262 33.757,15.303 33.821,15.324L33.823,15.325C33.95,15.364 34.083,15.381 34.215,15.373L34.212,15.373L34.761,15.387C35.175,15.346 35.588,15.469 35.912,15.73L35.909,15.728C35.939,15.752 35.965,15.778 35.988,15.807L35.989,15.808L36.001,17.42C35.833,17.617 35.619,17.769 35.378,17.863C35.137,17.958 34.877,17.991 34.62,17.961L34.627,17.962ZM30.678,17.962L28.706,17.962L28.706,17.052L30.668,17.052C30.815,17.071 30.963,17.034 31.083,16.946L31.081,16.947C31.118,16.912 31.148,16.87 31.168,16.823C31.189,16.776 31.199,16.725 31.199,16.674L31.199,16.671L31.199,16.664C31.199,16.613 31.188,16.562 31.167,16.515C31.145,16.468 31.115,16.426 31.076,16.392C30.971,16.317 30.841,16.284 30.713,16.298L30.715,16.298L30.529,16.292C29.618,16.268 28.584,16.24 28.584,14.987C28.584,14.377 28.964,13.726 30.031,13.726L32.059,13.726L32.059,14.628L30.203,14.628C30.061,14.612 29.919,14.641 29.794,14.71L29.798,14.708C29.746,14.744 29.704,14.794 29.677,14.852C29.65,14.91 29.64,14.974 29.647,15.037C29.653,15.101 29.677,15.161 29.715,15.212C29.754,15.263 29.805,15.303 29.864,15.327L29.866,15.328C29.994,15.368 30.129,15.384 30.263,15.376L30.26,15.376L30.805,15.39C31.221,15.35 31.636,15.474 31.963,15.734L31.96,15.731C32.07,15.852 32.154,15.995 32.205,16.15C32.257,16.305 32.277,16.469 32.262,16.632L32.262,16.627C32.265,17.51 31.73,17.96 30.675,17.96L30.678,17.962ZM28.1,17.962L24.72,17.962L24.72,13.725L28.097,13.725L28.097,14.6L25.73,14.6L25.73,15.37L28.042,15.37L28.042,16.233L25.73,16.233L25.73,17.075L28.1,17.079L28.1,17.962ZM30.07,10.676L28.009,10.676L27.615,9.732L25.513,9.732L25.131,10.676L23.947,10.676C23.415,10.704 22.892,10.537 22.475,10.205L22.48,10.208C22.282,9.99 22.132,9.732 22.039,9.453C21.946,9.173 21.912,8.877 21.94,8.583L21.939,8.591C21.913,8.292 21.949,7.991 22.043,7.706C22.137,7.422 22.288,7.159 22.487,6.934L22.485,6.936C22.695,6.753 22.941,6.614 23.206,6.529C23.472,6.445 23.753,6.416 24.03,6.444L24.022,6.443L25.002,6.443L25.002,7.346L24.042,7.346C23.901,7.328 23.759,7.341 23.624,7.385C23.489,7.428 23.366,7.501 23.262,7.597L23.263,7.596C23.049,7.87 22.945,8.214 22.972,8.56L22.972,8.555C22.94,8.911 23.04,9.266 23.253,9.553L23.25,9.549C23.449,9.712 23.703,9.79 23.959,9.767L23.955,9.767L24.409,9.767L25.84,6.437L27.36,6.437L29.073,10.437L29.073,6.437L30.614,6.437L32.392,9.385L32.392,6.437L33.432,6.437L33.432,10.669L31.988,10.669L30.068,7.491L30.068,10.669L30.07,10.676ZM26.571,7.158L25.874,8.846L27.271,8.846L26.571,7.158ZM16.772,10.674L15.76,10.674L15.76,6.44L18.088,6.44C18.513,6.396 18.942,6.468 19.329,6.649L19.314,6.643C19.47,6.729 19.599,6.855 19.69,7.009C19.78,7.162 19.828,7.336 19.828,7.514L19.826,7.584L19.826,7.581L19.826,7.612C19.826,7.843 19.76,8.069 19.634,8.263C19.509,8.457 19.331,8.611 19.12,8.706L19.112,8.709C19.313,8.785 19.482,8.907 19.611,9.063L19.613,9.065C19.756,9.3 19.815,9.576 19.78,9.848L19.781,9.842L19.781,10.673L18.76,10.673L18.756,10.139L18.756,10.059C18.792,9.798 18.735,9.533 18.593,9.31L18.596,9.315C18.49,9.237 18.37,9.181 18.242,9.15C18.114,9.119 17.982,9.114 17.852,9.134L17.858,9.133L16.773,9.133L16.773,10.673L16.772,10.674ZM16.772,7.321L16.772,8.261L18,8.261C18.174,8.28 18.349,8.249 18.505,8.171L18.5,8.173C18.564,8.134 18.617,8.079 18.654,8.014C18.691,7.949 18.71,7.875 18.71,7.8L18.709,7.772L18.709,7.773C18.714,7.697 18.697,7.621 18.659,7.555C18.622,7.489 18.566,7.435 18.498,7.4L18.496,7.399C18.344,7.334 18.178,7.306 18.013,7.319L18.016,7.319L16.772,7.321ZM6.056,10.674L4,10.674L3.611,9.73L1.503,9.73L1.111,10.674L0.011,10.674L1.824,6.44L3.327,6.44L5.048,10.447L5.048,6.44L6.699,6.44L8.023,9.311L9.24,6.44L10.925,6.44L10.925,10.672L9.885,10.672L9.883,7.36L8.416,10.673L7.528,10.673L6.057,7.355L6.057,10.673L6.056,10.674ZM2.552,7.158L1.863,8.846L3.245,8.846L2.552,7.158ZM21.44,10.673L20.408,10.673L20.408,6.44L21.441,6.44L21.441,10.672L21.44,10.673ZM15.054,10.673L11.68,10.673L11.68,6.44L15.06,6.44L15.06,7.32L12.692,7.32L12.692,8.083L15.003,8.083L15.003,8.952L12.69,8.952L12.69,9.798L15.058,9.798L15.058,10.672L15.054,10.673Z" style="fill-opacity:0.301961;fill-rule:nonzero;"/>
    </g>
</svg>
