<svg width="24" height="24" viewBox="0 0 24 24" fill="none" xmlns="http://www.w3.org/2000/svg">
<path fill-rule="evenodd" clip-rule="evenodd" d="M4.34351 17.9979C3.8855 18.4559 3.8855 19.1985 4.34351 19.6565C4.80153 20.1145 5.54411 20.1145 6.00213 19.6565L12 13.6586L17.9979 19.6565C18.4559 20.1145 19.1985 20.1145 19.6565 19.6565C20.1145 19.1985 20.1145 18.4559 19.6565 17.9979L13.6586 12L19.6565 6.00213C20.1145 5.54411 20.1145 4.80153 19.6565 4.34351C19.1985 3.8855 18.4559 3.8855 17.9979 4.34351L12 10.3414L6.00213 4.34351C5.54411 3.8855 4.80153 3.8855 4.34351 4.34351C3.8855 4.80153 3.8855 5.54411 4.34351 6.00213L10.3414 12L4.34351 17.9979Z" fill="#424242"/>
</svg>
