<?xml version="1.0" encoding="UTF-8" standalone="no"?>
<!DOCTYPE svg PUBLIC "-//W3C//DTD SVG 1.1//EN" "http://www.w3.org/Graphics/SVG/1.1/DTD/svg11.dtd">
<svg width="100%" height="100%" viewBox="0 0 206 40" version="1.1" xmlns="http://www.w3.org/2000/svg" xmlns:xlink="http://www.w3.org/1999/xlink" xml:space="preserve" xmlns:serif="http://www.serif.com/" style="fill-rule:evenodd;clip-rule:evenodd;stroke-linejoin:round;stroke-miterlimit:1.41421;">
    <g transform="matrix(1,0,0,1,-0.842729,0.580636)">
        <g transform="matrix(1,0,0,1,-5,-6.5)">
            <path d="M44.129,35.218C42.232,38.662 39.325,41.484 35.774,43.326C32.223,45.168 28.189,45.948 24.181,45.567C20.173,45.186 16.372,43.661 13.258,41.186C10.144,38.71 7.857,35.395 6.686,31.659C5.515,27.923 5.513,23.934 6.681,20.197C7.848,16.46 10.132,13.143 13.244,10.664C16.355,8.186 20.155,6.658 24.163,6.273C28.17,5.889 32.205,6.665 35.758,8.504L33.347,12.883C30.687,11.506 27.667,10.925 24.667,11.213C21.667,11.501 18.822,12.645 16.493,14.5C14.164,16.355 12.454,18.838 11.58,21.636C10.706,24.433 10.708,27.419 11.584,30.216C12.46,33.012 14.173,35.494 16.504,37.347C18.835,39.201 21.68,40.342 24.68,40.627C27.681,40.912 30.701,40.329 33.359,38.95C36.017,37.571 38.193,35.458 39.613,32.88L44.129,35.218Z" style="fill-rule:nonzero;"/>
        </g>
        <g transform="matrix(1,0,0,1,-5,-6.5)">
            <path d="M25.548,36.371C31.321,36.371 36,31.692 36,25.919C36,20.147 31.321,15.468 25.548,15.468C19.776,15.468 15.097,20.147 15.097,25.919C15.097,31.692 19.776,36.371 25.548,36.371Z" style="fill:rgb(251,60,127);fill-rule:nonzero;"/>
        </g>
        <g transform="matrix(1,0,0,1,-5,-6.5)">
            <path d="M66.716,35.629C64.665,35.629 62.806,35.184 61.142,34.294C59.497,33.384 58.2,32.136 57.252,30.548C56.323,28.961 55.858,27.171 55.858,25.177C55.858,23.184 56.332,21.394 57.281,19.807C58.229,18.219 59.526,16.981 61.171,16.09C62.836,15.181 64.694,14.726 66.745,14.726C68.41,14.726 69.929,15.016 71.303,15.597C72.677,16.177 73.839,17.019 74.787,18.123L72.348,20.416C70.877,18.829 69.068,18.036 66.919,18.036C65.526,18.036 64.277,18.345 63.174,18.965C62.071,19.565 61.21,20.407 60.59,21.49C59.971,22.574 59.661,23.803 59.661,25.177C59.661,26.552 59.971,27.781 60.59,28.865C61.21,29.948 62.071,30.8 63.174,31.419C64.277,32.019 65.526,32.319 66.919,32.319C69.068,32.319 70.877,31.516 72.348,29.91L74.787,32.232C73.839,33.336 72.668,34.177 71.274,34.758C69.9,35.339 68.381,35.629 66.716,35.629ZM87.472,35.629C85.401,35.629 83.533,35.184 81.869,34.294C80.204,33.384 78.897,32.136 77.949,30.548C77.001,28.942 76.527,27.152 76.527,25.177C76.527,23.203 77.001,21.423 77.949,19.836C78.897,18.229 80.204,16.981 81.869,16.09C83.533,15.181 85.401,14.726 87.472,14.726C89.543,14.726 91.41,15.181 93.075,16.09C94.739,16.981 96.046,18.219 96.994,19.807C97.943,21.394 98.417,23.184 98.417,25.177C98.417,27.171 97.943,28.961 96.994,30.548C96.046,32.136 94.739,33.384 93.075,34.294C91.41,35.184 89.543,35.629 87.472,35.629ZM87.472,32.319C88.827,32.319 90.046,32.019 91.13,31.419C92.214,30.8 93.065,29.948 93.685,28.865C94.304,27.761 94.614,26.532 94.614,25.177C94.614,23.823 94.304,22.603 93.685,21.519C93.065,20.416 92.214,19.565 91.13,18.965C90.046,18.345 88.827,18.036 87.472,18.036C86.117,18.036 84.897,18.345 83.814,18.965C82.73,19.565 81.878,20.416 81.259,21.519C80.639,22.603 80.33,23.823 80.33,25.177C80.33,26.532 80.639,27.761 81.259,28.865C81.878,29.948 82.73,30.8 83.814,31.419C84.897,32.019 86.117,32.319 87.472,32.319ZM121.085,35.339L121.056,21.868L114.379,33.016L112.695,33.016L106.017,22.042L106.017,35.339L102.417,35.339L102.417,15.016L105.524,15.016L113.595,28.487L121.521,15.016L124.627,15.016L124.656,35.339L121.085,35.339ZM138.507,15.016C140.268,15.016 141.797,15.307 143.094,15.887C144.41,16.468 145.416,17.3 146.113,18.384C146.81,19.468 147.158,20.755 147.158,22.245C147.158,23.716 146.81,25.003 146.113,26.107C145.416,27.19 144.41,28.023 143.094,28.603C141.797,29.184 140.268,29.474 138.507,29.474L133.92,29.474L133.92,35.339L130.145,35.339L130.145,15.016L138.507,15.016ZM138.333,26.281C139.978,26.281 141.226,25.932 142.078,25.235C142.929,24.539 143.355,23.542 143.355,22.245C143.355,20.948 142.929,19.952 142.078,19.255C141.226,18.558 139.978,18.21 138.333,18.21L133.92,18.21L133.92,26.281L138.333,26.281ZM163.087,30.636L152.926,30.636L150.923,35.339L147.033,35.339L156.178,15.016L159.894,15.016L169.068,35.339L165.12,35.339L163.087,30.636ZM161.839,27.674L158.007,18.79L154.203,27.674L161.839,27.674ZM189.711,15.016L189.711,35.339L186.604,35.339L175.398,21.577L175.398,35.339L171.653,35.339L171.653,15.016L174.759,15.016L185.965,28.777L185.965,15.016L189.711,15.016ZM203.924,28.168L203.924,35.339L200.15,35.339L200.15,28.226L192.166,15.016L196.201,15.016L202.153,24.916L208.163,15.016L211.879,15.016L203.924,28.168Z" style="fill-rule:nonzero;"/>
        </g>
    </g>
</svg>
