<svg width="155" height="33" viewBox="0 0 155 33" fill="none" xmlns="http://www.w3.org/2000/svg">
<g clip-path="url(#clip0_74_118)">
<path d="M45.7237 6.89917C47.7401 6.89917 49.4153 7.46997 50.7493 8.61156C52.0833 9.75315 52.983 11.3012 53.4483 13.2558H50.633C50.2452 12.1488 49.6248 11.2753 48.7716 10.6353C47.934 9.97799 46.9025 9.64937 45.6771 9.64937C44.6999 9.64937 43.8235 9.91749 43.048 10.4537C42.2879 10.9899 41.683 11.7596 41.2331 12.7628C40.7988 13.7487 40.5817 14.9076 40.5817 16.2395C40.5817 17.554 40.7988 18.7129 41.2331 19.7161C41.683 20.7021 42.2879 21.4631 43.048 21.9993C43.8235 22.5355 44.6999 22.8036 45.6771 22.8036C46.9025 22.8036 47.934 22.4836 48.7716 21.8437C49.6248 21.1864 50.2452 20.3129 50.633 19.2232H53.4483C52.983 21.1777 52.0833 22.7258 50.7493 23.8674C49.4153 24.9917 47.7401 25.5538 45.7237 25.5538C44.1726 25.5538 42.7998 25.1646 41.6054 24.3863C40.411 23.5907 39.4881 22.4923 38.8366 21.0912C38.1852 19.6729 37.8594 18.0556 37.8594 16.2395C37.8594 14.4233 38.1852 12.8147 38.8366 11.4136C39.4881 9.99533 40.411 8.88829 41.6054 8.09265C42.7998 7.29702 44.1726 6.89917 45.7237 6.89917ZM61.9578 10.9207C63.1989 10.9207 64.3157 11.2148 65.3083 11.8028C66.3014 12.3909 67.0765 13.2385 67.635 14.3455C68.1934 15.4524 68.4726 16.7497 68.4726 18.2373C68.4726 19.7421 68.1934 21.048 67.635 22.155C67.0765 23.262 66.3014 24.1096 65.3083 24.6976C64.3157 25.2857 63.1989 25.5798 61.9578 25.5798C60.7173 25.5798 59.6005 25.2857 58.6074 24.6976C57.6301 24.1096 56.8548 23.262 56.2809 22.155C55.7225 21.0307 55.4433 19.7248 55.4433 18.2373C55.4433 16.7497 55.7225 15.4524 56.2809 14.3455C56.8548 13.2385 57.6301 12.3909 58.6074 11.8028C59.6005 11.2148 60.7173 10.9207 61.9578 10.9207ZM61.9578 13.4893C61.2757 13.4893 60.6475 13.6622 60.0732 14.0082C59.4994 14.3541 59.0341 14.8903 58.6772 15.6168C58.3361 16.326 58.1653 17.1994 58.1653 18.2373C58.1653 19.2923 58.3361 20.1745 58.6772 20.8837C59.0341 21.5929 59.4994 22.1204 60.0732 22.4663C60.6475 22.8123 61.2757 22.9852 61.9578 22.9852C62.6405 22.9852 63.2687 22.8123 63.8424 22.4663C64.4167 22.1204 64.8741 21.5929 65.2152 20.8837C65.5721 20.1745 65.7503 19.2923 65.7503 18.2373C65.7503 17.1994 65.5721 16.326 65.2152 15.6168C64.8741 14.8903 64.4167 14.3541 63.8424 14.0082C63.2687 13.6622 62.6405 13.4893 61.9578 13.4893ZM87.0538 10.8688C88.5741 10.8688 89.784 11.405 90.6835 12.4774C91.5988 13.5498 92.0562 15.0806 92.0562 17.0697V25.3982H89.4038V17.3811C89.4038 16.1357 89.1246 15.1757 88.5662 14.5011C88.0078 13.8093 87.24 13.4633 86.2627 13.4633C85.2237 13.4633 84.3934 13.8352 83.7732 14.579C83.1682 15.3054 82.8658 16.3779 82.8658 17.7962V25.3982H80.2133V17.3811C80.2133 16.1357 79.9341 15.1757 79.3757 14.5011C78.8173 13.8093 78.0495 13.4633 77.0723 13.4633C76.0332 13.4633 75.203 13.8352 74.5827 14.579C73.9778 15.3054 73.6753 16.3779 73.6753 17.7962V25.3982H71.0229V11.1023H73.6753V14.086C74.001 13.0482 74.5441 12.2526 75.304 11.699C76.0639 11.1455 76.9559 10.8688 77.9797 10.8688C79.05 10.8688 79.9727 11.1629 80.7485 11.7509C81.5395 12.339 82.1133 13.1866 82.4702 14.2936C82.8425 13.2211 83.4395 12.3823 84.2618 11.7769C85.0841 11.1715 86.0148 10.8688 87.0538 10.8688ZM102.506 10.9207C103.623 10.9207 104.615 11.2148 105.484 11.8028C106.368 12.3909 107.058 13.2385 107.555 14.3455C108.051 15.4524 108.299 16.7497 108.299 18.2373C108.299 19.7421 108.051 21.048 107.555 22.155C107.058 23.262 106.368 24.1096 105.484 24.6976C104.615 25.2857 103.623 25.5798 102.506 25.5798C101.343 25.5798 100.35 25.2598 99.5278 24.6198C98.7055 23.9798 98.1318 23.1322 97.806 22.0772V32.1958H95.1536V11.1023H97.806V14.4233C98.1318 13.3682 98.7055 12.5206 99.5278 11.8807C100.35 11.2407 101.343 10.9207 102.506 10.9207ZM101.692 13.5152C100.947 13.5152 100.28 13.7141 99.6906 14.112C99.101 14.4925 98.6357 15.046 98.2946 15.7725C97.953 16.4816 97.7828 17.3032 97.7828 18.2373C97.7828 19.1886 97.953 20.0188 98.2946 20.728C98.6357 21.4372 99.101 21.9907 99.6906 22.3885C100.28 22.769 100.947 22.9593 101.692 22.9593C102.87 22.9593 103.816 22.5442 104.53 21.7139C105.244 20.8664 105.6 19.7075 105.6 18.2373C105.6 16.7843 105.244 15.6341 104.53 14.7865C103.816 13.939 102.87 13.5152 101.692 13.5152ZM115.996 10.9207C117.16 10.9207 118.152 11.2407 118.974 11.8807C119.796 12.5206 120.378 13.3682 120.719 14.4233V11.1023H123.372V25.3982H120.719V22.0772C120.378 23.1322 119.796 23.9798 118.974 24.6198C118.152 25.2598 117.16 25.5798 115.996 25.5798C114.879 25.5798 113.879 25.2857 112.995 24.6976C112.126 24.1096 111.443 23.262 110.947 22.155C110.451 21.048 110.203 19.7421 110.203 18.2373C110.203 16.7497 110.451 15.4524 110.947 14.3455C111.443 13.2385 112.126 12.3909 112.995 11.8028C113.879 11.2148 114.879 10.9207 115.996 10.9207ZM116.811 13.5152C115.631 13.5152 114.685 13.939 113.972 14.7865C113.274 15.6168 112.925 16.767 112.925 18.2373C112.925 19.7075 113.274 20.8664 113.972 21.7139C114.685 22.5442 115.631 22.9593 116.811 22.9593C117.555 22.9593 118.222 22.769 118.812 22.3885C119.401 21.9907 119.866 21.4372 120.208 20.728C120.549 20.0188 120.719 19.1886 120.719 18.2373C120.719 17.3032 120.549 16.4816 120.208 15.7725C119.866 15.046 119.401 14.4925 118.812 14.112C118.222 13.7141 117.555 13.5152 116.811 13.5152ZM133.721 10.8688C135.21 10.8688 136.404 11.405 137.304 12.4774C138.204 13.5498 138.654 15.0806 138.654 17.0697V25.3982H136.001V17.3811C136.001 16.1011 135.706 15.1152 135.117 14.4233C134.528 13.7141 133.721 13.3595 132.697 13.3595C131.643 13.3595 130.797 13.7401 130.161 14.5011C129.525 15.2449 129.207 16.3433 129.207 17.7962V25.3982H126.555V11.1023H129.207V14.2417C129.548 13.1693 130.122 12.339 130.929 11.7509C131.736 11.1629 132.666 10.8688 133.721 10.8688ZM143.268 11.1023L147.107 21.6101L150.667 11.1023H153.622L145.874 32.1958H142.919L145.688 25.0609L140.29 11.1023H143.268Z" fill="#424242"/>
<path d="M30.5634 23.276C29.0867 26.0057 26.823 28.2419 24.0587 29.7018C21.2943 31.1617 18.1534 31.7798 15.0331 31.4779C11.9129 31.176 8.95333 29.9677 6.52885 28.0056C4.10439 26.0437 2.32384 23.4162 1.41237 20.4554C0.500904 17.4947 0.499456 14.3337 1.40821 11.3721C2.31697 8.41059 4.09511 5.7815 6.5178 3.81735C8.94043 1.8532 11.8989 0.642214 15.0189 0.337518C18.1388 0.0328223 21.2803 0.648104 24.046 2.10556L22.1689 5.57554C20.0985 4.48452 17.7468 4.02393 15.4113 4.25202C13.0757 4.48011 10.8612 5.38663 9.04757 6.85694C7.23399 8.32724 5.90294 10.2953 5.22266 12.5123C4.54239 14.7292 4.54347 17.0955 5.22577 19.3119C5.90808 21.5282 7.24098 23.4951 9.05588 24.9638C10.8708 26.4325 13.0862 27.337 15.422 27.563C17.7577 27.789 20.109 27.3264 22.1783 26.2335C24.2477 25.1406 25.9422 23.4667 27.0476 21.4233L30.5634 23.276Z" fill="#424242"/>
<path d="M16.0094 24.014C20.4303 24.014 24.0141 20.4302 24.0141 16.0093C24.0141 11.5885 20.4303 8.00464 16.0094 8.00464C11.5885 8.00464 8.0047 11.5885 8.0047 16.0093C8.0047 20.4302 11.5885 24.014 16.0094 24.014Z" fill="#FB3C7F"/>
</g>
<defs>
<clipPath id="clip0_74_118">
<rect width="155" height="32.7465" fill="white"/>
</clipPath>
</defs>
</svg>
