<svg width="48" height="48" viewBox="0 0 48 48" fill="none" xmlns="http://www.w3.org/2000/svg">
<path d="M24.7419 34.1936C30.5142 34.1936 35.1935 29.5142 35.1935 23.7419C35.1935 17.9697 30.5142 13.2903 24.7419 13.2903C18.9697 13.2903 14.2903 17.9697 14.2903 23.7419C14.2903 29.5142 18.9697 34.1936 24.7419 34.1936Z" fill="#FB3C7F"/>
<path d="M43.3226 33.0403C41.4258 36.4847 38.5182 39.3064 34.9676 41.1485C31.4169 42.9907 27.3825 43.7707 23.3746 43.3896C19.3668 43.0087 15.5654 41.484 12.4513 39.0083C9.3372 36.5327 7.05016 33.2172 5.87942 29.4813C4.70868 25.7453 4.70682 21.7566 5.87408 18.0197C7.04133 14.2828 9.32527 10.9653 12.4371 8.48689C15.5489 6.00848 19.3488 4.48043 23.3564 4.09595C27.3638 3.71148 31.3989 4.48786 34.9513 6.32691L32.5402 10.7054C29.8809 9.32874 26.8603 8.74757 23.8604 9.03537C20.8605 9.32318 18.016 10.467 15.6865 12.3223C13.357 14.1776 11.6473 16.661 10.7736 19.4584C9.89978 22.2558 9.90117 25.2416 10.7776 28.0383C11.654 30.8349 13.366 33.3168 15.6972 35.17C18.0283 37.0233 20.8739 38.1646 23.8741 38.4498C26.8743 38.735 29.8943 38.1512 32.5523 36.7722C35.2103 35.3931 37.3869 33.2809 38.8067 30.7025L43.3226 33.0403Z" fill="black"/>
</svg>
