<?xml version="1.0" encoding="UTF-8" standalone="no"?>
<!DOCTYPE svg PUBLIC "-//W3C//DTD SVG 1.1//EN" "http://www.w3.org/Graphics/SVG/1.1/DTD/svg11.dtd">
<svg width="100%" height="100%" viewBox="0 0 40 40" version="1.1" xmlns="http://www.w3.org/2000/svg" xmlns:xlink="http://www.w3.org/1999/xlink" xml:space="preserve" xmlns:serif="http://www.serif.com/" style="fill-rule:evenodd;clip-rule:evenodd;stroke-linejoin:round;stroke-miterlimit:1.41421;">
    <g transform="matrix(1,0,0,1,3.00082,8.00004)">
        <g opacity="0.3">
            <path d="M22.455,23.213C20.237,23.214 18.069,22.556 16.225,21.324C14.381,20.093 12.943,18.342 12.094,16.293C11.245,14.244 11.023,11.989 11.455,9.814C11.887,7.639 12.955,5.641 14.523,4.072C16.091,2.504 18.089,1.435 20.264,1.002C22.439,0.569 24.694,0.791 26.743,1.64C28.792,2.488 30.544,3.925 31.776,5.769C33.008,7.613 33.666,9.781 33.667,11.998L33.667,12C33.664,14.973 32.481,17.823 30.38,19.925C28.278,22.027 25.428,23.21 22.455,23.213Z" style="fill-opacity:0.5;fill-rule:nonzero;"/>
            <path d="M11.545,23.213C9.327,23.213 7.159,22.556 5.315,21.324C3.471,20.091 2.034,18.34 1.185,16.291C0.337,14.242 0.114,11.988 0.547,9.812C0.98,7.637 2.048,5.639 3.616,4.071C5.184,2.503 7.182,1.435 9.357,1.002C11.533,0.569 13.787,0.791 15.836,1.64C17.885,2.489 19.636,3.926 20.869,5.77C22.101,7.614 22.758,9.782 22.758,12C22.755,14.973 21.573,17.823 19.471,19.926C17.368,22.028 14.518,23.21 11.545,23.213Z" style="fill-rule:nonzero;"/>
        </g>
    </g>
</svg>
