<?xml version="1.0" encoding="UTF-8" standalone="no"?>
<!DOCTYPE svg PUBLIC "-//W3C//DTD SVG 1.1//EN" "http://www.w3.org/Graphics/SVG/1.1/DTD/svg11.dtd">
<svg width="100%" height="100%" viewBox="0 0 40 40" version="1.1" xmlns="http://www.w3.org/2000/svg" xmlns:xlink="http://www.w3.org/1999/xlink" xml:space="preserve" xmlns:serif="http://www.serif.com/" style="fill-rule:evenodd;clip-rule:evenodd;stroke-linejoin:round;stroke-miterlimit:1.41421;">
    <g transform="matrix(1,0,0,1,5.61643,5.99915)">
        <g opacity="0.3">
            <path d="M25.429,8.438C24.122,14.242 20.087,17.304 13.725,17.304L11.61,17.304L10.138,26.645L8.365,26.645L8.272,27.247C8.258,27.341 8.264,27.436 8.29,27.526C8.316,27.617 8.361,27.701 8.422,27.773C8.483,27.845 8.559,27.902 8.645,27.942C8.731,27.981 8.824,28.002 8.918,28.002L13.447,28.002C13.707,28.001 13.957,27.909 14.155,27.74C14.352,27.572 14.483,27.339 14.525,27.083L14.569,26.854L15.423,21.445L15.477,21.149C15.518,20.892 15.648,20.659 15.846,20.49C16.044,20.322 16.295,20.229 16.555,20.23L17.227,20.23C21.613,20.23 25.048,18.447 26.054,13.295C26.432,11.336 26.289,9.674 25.431,8.438L25.429,8.438Z" style="fill-rule:nonzero;"/>
            <path d="M22.722,2.111C21.425,0.633 19.08,0 16.083,0L7.382,0C6.769,0 6.244,0.443 6.151,1.05L2.525,24.029C2.508,24.136 2.515,24.245 2.544,24.349C2.573,24.453 2.625,24.55 2.695,24.632C2.765,24.714 2.853,24.78 2.951,24.825C3.049,24.87 3.156,24.894 3.264,24.894L8.64,24.894L9.991,16.334L9.947,16.602C10.04,15.995 10.56,15.552 11.172,15.552L13.725,15.552C18.741,15.552 22.666,13.519 23.816,7.623C23.849,7.448 23.881,7.278 23.903,7.114C24.243,4.937 23.903,3.449 22.722,2.111Z" style="fill-rule:nonzero;"/>
        </g>
    </g>
</svg>
