<svg width="136" height="136" viewBox="0 0 136 136" fill="none" xmlns="http://www.w3.org/2000/svg">
<path d="M38.1724 112.131C36.6973 114.314 37.2624 117.298 39.5587 118.589C48.6421 123.696 58.962 126.277 69.438 126.018C81.5082 125.719 93.1846 121.662 102.841 114.414C112.497 107.166 119.652 97.0861 123.309 85.5794C126.966 74.0727 126.944 61.7119 123.245 50.2186C119.545 38.7254 112.354 28.672 102.671 21.459C92.9885 14.2459 81.2974 10.2323 69.2262 9.97715C57.155 9.72203 45.3047 13.2381 35.3261 20.0357C26.6655 25.9354 19.789 34.052 15.3897 43.4985C14.2776 45.8865 15.5592 48.64 18.0305 49.5524C20.5018 50.4647 23.2237 49.1877 24.3743 46.8179C28.0601 39.2266 33.6771 32.7018 40.6969 27.9198C49.0353 22.2396 58.9376 19.3015 69.0246 19.5147C79.1116 19.7278 88.881 23.0817 96.972 29.1092C105.063 35.1366 111.073 43.5374 114.164 53.1414C117.255 62.7455 117.274 73.0745 114.218 82.6898C111.162 92.305 105.183 100.728 97.1137 106.785C89.0449 112.842 79.2878 116.231 69.2016 116.481C60.7105 116.692 52.342 114.668 44.9202 110.652C42.6033 109.398 39.6476 109.949 38.1724 112.131Z" fill="#E6E6E6"/>
<path d="M30.364 30.3065C28.5027 28.4423 25.4656 28.4282 23.7605 30.4363C16.1508 39.398 11.4167 50.4936 10.248 62.2673C8.92174 75.6285 12.2693 89.0362 19.7204 100.206C27.1714 111.376 38.2649 119.616 51.1106 123.524C63.9563 127.431 77.7595 126.764 90.1683 121.635C102.577 116.506 112.824 107.233 119.162 95.3969C125.5 83.5603 127.539 69.8921 124.929 56.7212C122.32 43.5503 115.224 31.6917 104.852 23.1658C95.7115 15.653 84.5251 11.1377 72.8088 10.1637C70.1836 9.94546 68.0426 12.0997 68.0406 14.734C68.0386 17.3683 70.1778 19.4812 72.7992 19.7418C82.3052 20.6871 91.3597 24.4247 98.7942 30.5355C107.462 37.6599 113.391 47.5692 115.571 58.5752C117.752 69.5811 116.049 81.0025 110.752 90.8935C105.456 100.784 96.8934 108.533 86.5243 112.819C76.1553 117.104 64.621 117.662 53.8868 114.397C43.1526 111.132 33.8826 104.246 27.6563 94.9121C21.4301 85.5784 18.6327 74.3746 19.741 63.2096C20.6916 53.6331 24.4651 44.5934 30.5297 37.2126C32.2021 35.1772 32.2253 32.1706 30.364 30.3065Z" fill="#FB3C7F"/>
<path d="M54.5464 63.7651C54.5464 64.9728 54.2445 66.0381 53.6406 66.9609C53.0482 67.8838 52.2279 68.6243 51.1797 69.1826C52.3646 69.7637 53.3045 70.5612 53.9995 71.5752C54.6945 72.5778 55.042 73.7684 55.042 75.147C55.042 77.3687 54.2729 79.1232 52.7349 80.4106C51.2082 81.6981 49.1004 82.3418 46.4116 82.3418C43.7114 82.3418 41.5809 81.6981 40.02 80.4106C38.4591 79.1118 37.6787 77.3573 37.6787 75.147C37.6787 73.814 38.0205 72.6348 38.7041 71.6094C39.3877 70.584 40.3561 69.7751 41.6094 69.1826C40.5498 68.6243 39.7181 67.8838 39.1143 66.9609C38.5104 66.0381 38.2085 64.9728 38.2085 63.7651C38.2085 61.6004 38.9434 59.8914 40.4131 58.6382C41.8828 57.3849 43.8652 56.7583 46.3604 56.7583C48.8783 56.7583 50.8721 57.3849 52.3418 58.6382C53.8115 59.8914 54.5464 61.6004 54.5464 63.7651ZM49.2656 74.6855C49.2656 73.6602 48.9979 72.874 48.4624 72.3271C47.9383 71.7689 47.2433 71.4897 46.3774 71.4897C45.5116 71.4897 44.8109 71.7689 44.2754 72.3271C43.7399 72.874 43.4722 73.6602 43.4722 74.6855C43.4722 75.6768 43.7399 76.4629 44.2754 77.0439C44.8223 77.6136 45.5343 77.8984 46.4116 77.8984C47.2661 77.8984 47.9554 77.6136 48.4795 77.0439C49.0036 76.4743 49.2656 75.6882 49.2656 74.6855ZM46.3604 61.2017C45.5856 61.2017 44.9932 61.458 44.583 61.9707C44.1842 62.472 43.9849 63.1727 43.9849 64.0728C43.9849 64.9614 44.1899 65.6792 44.6001 66.2261C45.0103 66.7729 45.6141 67.0464 46.4116 67.0464C47.1978 67.0464 47.7845 66.7729 48.1719 66.2261C48.5706 65.6792 48.77 64.9614 48.77 64.0728C48.77 63.1841 48.5649 62.4834 48.1548 61.9707C47.756 61.458 47.1579 61.2017 46.3604 61.2017ZM75.3276 60.1934L66.0308 82H59.9468L69.2607 61.5605H57.4004V57.1172H75.3276V60.1934ZM78.3184 61.9023C78.3184 60.3643 78.8197 59.1224 79.8223 58.1768C80.8249 57.2311 82.1693 56.7583 83.8555 56.7583C85.5645 56.7583 86.9146 57.2311 87.9058 58.1768C88.897 59.111 89.3926 60.3813 89.3926 61.9878V63.2183C89.3926 64.7563 88.897 65.9925 87.9058 66.9268C86.9146 67.861 85.5758 68.3281 83.8896 68.3281C82.2148 68.3281 80.8647 67.8667 79.8394 66.9438C78.8254 66.0096 78.3184 64.7336 78.3184 63.1157V61.9023ZM82.0269 63.2183C82.0269 63.8107 82.1921 64.2949 82.5225 64.6709C82.8529 65.0355 83.3086 65.2178 83.8896 65.2178C85.0859 65.2178 85.6841 64.4544 85.6841 62.9277V61.9023C85.6841 61.3099 85.5246 60.8257 85.2056 60.4497C84.8866 60.0623 84.4365 59.8687 83.8555 59.8687C83.2972 59.8687 82.8529 60.0566 82.5225 60.4326C82.1921 60.7972 82.0269 61.2985 82.0269 61.9365V63.2183ZM90.1445 75.8989C90.1445 74.3494 90.6458 73.1076 91.6484 72.1733C92.6624 71.2391 94.0068 70.772 95.6816 70.772C97.3792 70.772 98.7293 71.2334 99.7319 72.1562C100.735 73.0791 101.236 74.3665 101.236 76.0186V77.2148C101.236 78.7643 100.74 80.0062 99.749 80.9404C98.7578 81.8747 97.4134 82.3418 95.7158 82.3418C94.041 82.3418 92.6909 81.8804 91.6655 80.9575C90.6515 80.0233 90.1445 78.7472 90.1445 77.1294V75.8989ZM93.8359 77.2148C93.8359 77.7503 94.0182 78.2231 94.3828 78.6333C94.7474 79.0321 95.1917 79.2314 95.7158 79.2314C96.821 79.2314 97.4191 78.7074 97.5103 77.6592L97.5273 75.8989C97.5273 75.2951 97.3621 74.8109 97.0317 74.4463C96.7013 74.0703 96.2513 73.8823 95.6816 73.8823C95.1348 73.8823 94.6961 74.0589 94.3657 74.4121C94.0353 74.7539 93.8587 75.221 93.8359 75.8135V77.2148ZM84.9834 80.1372L82.3003 78.7871L94.4512 59.3389L97.1343 60.689L84.9834 80.1372Z" fill="#424242"/>
</svg>
