<?xml version="1.0" encoding="UTF-8" standalone="no"?>
<!DOCTYPE svg PUBLIC "-//W3C//DTD SVG 1.1//EN" "http://www.w3.org/Graphics/SVG/1.1/DTD/svg11.dtd">
<svg width="100%" height="100%" viewBox="0 0 24 24" version="1.1" xmlns="http://www.w3.org/2000/svg" xmlns:xlink="http://www.w3.org/1999/xlink" xml:space="preserve" xmlns:serif="http://www.serif.com/" style="fill-rule:evenodd;clip-rule:evenodd;stroke-linejoin:round;stroke-miterlimit:1.41421;">
    <g transform="matrix(1,0,0,1,1.83796,3.67132)">
        <path d="M20.287,2.05C19.542,2.38 18.742,2.603 17.901,2.704C18.769,2.185 19.418,1.368 19.728,0.405C18.913,0.889 18.02,1.23 17.09,1.413C16.464,0.745 15.635,0.302 14.732,0.153C13.829,0.004 12.902,0.158 12.095,0.59C11.288,1.022 10.646,1.708 10.269,2.542C9.892,3.377 9.801,4.312 10.01,5.203C8.358,5.12 6.742,4.691 5.267,3.943C3.792,3.195 2.49,2.145 1.447,0.862C1.09,1.477 0.885,2.19 0.885,2.95C0.885,3.634 1.053,4.308 1.376,4.911C1.698,5.514 2.164,6.029 2.733,6.409C2.073,6.388 1.428,6.21 0.851,5.889L0.851,5.942C0.851,6.902 1.183,7.832 1.791,8.574C2.398,9.317 3.244,9.826 4.184,10.016C3.572,10.182 2.93,10.206 2.308,10.088C2.573,10.913 3.09,11.635 3.786,12.152C4.482,12.669 5.322,12.956 6.189,12.972C4.717,14.127 2.9,14.754 1.029,14.751C0.697,14.751 0.366,14.732 0.037,14.693C1.936,15.914 4.147,16.562 6.405,16.56C14.048,16.56 18.226,10.229 18.226,4.739C18.226,4.561 18.222,4.381 18.214,4.202C19.026,3.615 19.728,2.887 20.285,2.053L20.287,2.05Z" style="fill:rgb(103,103,103);fill-rule:nonzero;"/>
    </g>
</svg>
