<?xml version="1.0" encoding="UTF-8" standalone="no"?>
<!DOCTYPE svg PUBLIC "-//W3C//DTD SVG 1.1//EN" "http://www.w3.org/Graphics/SVG/1.1/DTD/svg11.dtd">
<svg width="100%" height="100%" viewBox="0 0 40 40" version="1.1" xmlns="http://www.w3.org/2000/svg" xmlns:xlink="http://www.w3.org/1999/xlink" xml:space="preserve" xmlns:serif="http://www.serif.com/" style="fill-rule:evenodd;clip-rule:evenodd;stroke-linejoin:round;stroke-miterlimit:1.41421;">
    <g transform="matrix(1,0,0,1,0.00085,14)">
        <path d="M27.565,1.31C26.79,1.028 25.971,0.886 25.147,0.892C22.48,0.892 20.597,2.235 20.583,4.163C20.567,5.58 21.922,6.378 22.947,6.852C23.998,7.338 24.35,7.645 24.347,8.08C24.34,8.742 23.507,9.042 22.732,9.042C21.667,9.042 21.085,8.893 20.19,8.522L19.858,8.367L19.48,10.587C20.128,10.857 21.297,11.088 22.503,11.108C25.338,11.108 27.192,9.773 27.213,7.722C27.237,6.59 26.503,5.735 24.96,5.028C24.022,4.57 23.44,4.263 23.44,3.798C23.44,3.387 23.938,2.947 24.98,2.947C25.673,2.93 26.362,3.06 27.002,3.328L27.252,3.44L27.63,1.295L27.565,1.31ZM34.485,1.072L32.402,1.072C31.753,1.072 31.265,1.25 30.982,1.893L26.975,10.97L29.81,10.97L30.377,9.482L33.837,9.485C33.918,9.833 34.168,10.97 34.168,10.97L36.668,10.97L34.485,1.072ZM16.748,0.988L19.45,0.988L17.76,10.892L15.062,10.892L16.748,0.985L16.748,0.988ZM9.89,6.447L10.17,7.822L12.81,1.072L15.672,1.072L11.42,10.957L8.565,10.957L6.232,2.587C6.194,2.449 6.105,2.33 5.983,2.255C5.142,1.821 4.251,1.491 3.33,1.273L3.367,1.065L7.715,1.065C8.305,1.088 8.78,1.273 8.938,1.903L9.888,6.452L9.888,6.447L9.89,6.447ZM31.152,7.457L32.228,4.687C32.215,4.717 32.45,4.115 32.587,3.743L32.772,4.598L33.397,7.455L31.15,7.455L31.15,7.457L31.152,7.457Z" style="fill-opacity:0.301961;fill-rule:nonzero;"/>
    </g>
</svg>
